<?xml version="1.0" encoding="UTF-8" standalone="no"?>
<svg width="161px" height="161px" viewBox="0 0 161 161" version="1.1" xmlns="http://www.w3.org/2000/svg" xmlns:xlink="http://www.w3.org/1999/xlink" xmlns:sketch="http://www.bohemiancoding.com/sketch/ns">
    <!-- Generator: Sketch 3.1.1 (8761) - http://www.bohemiancoding.com/sketch -->
    <title>counter</title>
    <desc>Created with Sketch.</desc>
    <defs></defs>
    <g id="Page-1" stroke="none" stroke-width="1" fill="none" fill-rule="evenodd" sketch:type="MSPage">
        <g id="Desktop-HD" sketch:type="MSArtboardGroup" transform="translate(-331.000000, -1670.000000)" stroke="#E63A10">
            <g id="Découvrir" sketch:type="MSLayerGroup" transform="translate(-47.000000, 689.000000)">
                <g id="Mais-les-places-sont-limitées" transform="translate(299.000000, 965.000000)" sketch:type="MSShapeGroup">
                    <g id="counter" transform="translate(79.000000, 16.000000)">
                        <circle id="Oval-4" fill="#FFFFFF" cx="80.5" cy="80.5" r="80.5"></circle>
                        <path d="M80.6666667,154.666667 C121.535738,154.666667 154.666667,121.535738 154.666667,80.6666667 C154.666667,39.7975952 121.535738,6.66666667 80.6666667,6.66666667 C39.7975952,6.66666667 6.66666667,39.7975952 6.66666667,80.6666667 C6.66666667,121.535738 39.7975952,154.666667 80.6666667,154.666667 Z" id="Oval-5" fill="#FFFFFF"></path>
                        <g id="Oval-7-+-Oval-8-+-Path-35" transform="translate(18.000000, 18.000000)" fill="#FFFFFF">
                            <path d="M109.54998,21.4500198 L109.592861,21.4071392 L109.592861,21.4071392 C98.135794,8.28809557 81.2857912,0 62.5,0 C43.3646904,0 26.2378719,8.59937234 14.7732698,22.1443915 L14.8159545,22.1799621 L14.8159545,22.1799621 C13.0870886,23.735864 12,25.9909804 12,28.5 C12,33.1944204 15.8055796,37 20.5,37 C23.5621132,37 26.246043,35.3808043 27.7422921,32.9519101 L27.9911978,33.1593315 C36.4284264,23.2703684 48.9819517,17 63,17 C76.5342678,17 88.7033534,22.84504 97.1206652,32.1485283 C98.4860293,35.0171925 101.411454,37 104.799988,37 C109.494408,37 113.299988,33.1944204 113.299988,28.5 C113.299988,25.5649327 111.812364,22.9773184 109.54998,21.4500198 Z" id="Oval-8"></path>
                        </g>
                        <path d="M39.5,42.5 L81.5,121.5" id="Line" stroke-linecap="square"></path>
                        <circle id="Oval-6" fill="#FFFFFF" cx="81" cy="121" r="5"></circle>
                    </g>
                </g>
            </g>
        </g>
    </g>
</svg>