<?xml version="1.0" encoding="UTF-8" standalone="no"?>
<svg width="161px" height="161px" viewBox="0 0 161 161" version="1.1" xmlns="http://www.w3.org/2000/svg" xmlns:xlink="http://www.w3.org/1999/xlink" xmlns:sketch="http://www.bohemiancoding.com/sketch/ns">
    <!-- Generator: Sketch 3.1.1 (8761) - http://www.bohemiancoding.com/sketch -->
    <title>clock</title>
    <desc>Created with Sketch.</desc>
    <defs></defs>
    <g id="Page-1" stroke="none" stroke-width="1" fill="none" fill-rule="evenodd" sketch:type="MSPage">
        <g id="Desktop-HD" sketch:type="MSArtboardGroup" transform="translate(-931.000000, -1350.000000)" stroke="#E63A10">
            <g id="Découvrir" sketch:type="MSLayerGroup" transform="translate(-47.000000, 689.000000)">
                <g id="Au-gouter-ou-au-soup" transform="translate(298.000000, 613.000000)" sketch:type="MSShapeGroup">
                    <g id="clock" transform="translate(680.000000, 48.000000)">
                        <circle id="Oval-4" fill="#FFFFFF" cx="80.5" cy="80.5" r="80.5"></circle>
                        <path d="M80.6666667,154.666667 C121.535738,154.666667 154.666667,121.535738 154.666667,80.6666667 C154.666667,39.7975952 121.535738,6.66666667 80.6666667,6.66666667 C39.7975952,6.66666667 6.66666667,39.7975952 6.66666667,80.6666667 C6.66666667,121.535738 39.7975952,154.666667 80.6666667,154.666667 Z" id="Oval-5" fill="#FFFFFF"></path>
                        <rect id="Rectangle-26" x="76" y="78" width="55" height="6" rx="4"></rect>
                        <rect id="Rectangle-27" transform="translate(61.000000, 58.833333) rotate(-132.000000) translate(-61.000000, -58.833333) " x="31" y="58.3333333" width="60" height="1" rx="4"></rect>
                        <rect id="Rectangle-27" x="78" y="76" width="6" height="30" rx="4"></rect>
                        <path d="M80.5,8.5 L80.5,13.5" id="Line" stroke-linecap="square"></path>
                        <path d="M147.5,80.5 L152.665525,80.5" id="Line" stroke-linecap="square"></path>
                        <path d="M8.5,80.5 L13.5,80.5" id="Line-2" stroke-linecap="square"></path>
                        <path d="M80.5,147.5 L80.5,152.999369" id="Line-2" stroke-linecap="square"></path>
                        <circle id="Oval-6" fill="#F9F9F9" cx="81" cy="81" r="5"></circle>
                    </g>
                </g>
            </g>
        </g>
    </g>
</svg>