<?xml version="1.0" encoding="UTF-8" standalone="no"?>
<svg width="53px" height="19px" viewBox="0 0 53 19" version="1.1" xmlns="http://www.w3.org/2000/svg" xmlns:xlink="http://www.w3.org/1999/xlink" xmlns:sketch="http://www.bohemiancoding.com/sketch/ns">
    <!-- Generator: Sketch 3.1.1 (8761) - http://www.bohemiancoding.com/sketch -->
    <title>Logotype</title>
    <desc>Created with Sketch.</desc>
    <defs></defs>
    <g id="Page-1" stroke="none" stroke-width="1" fill="none" fill-rule="evenodd" sketch:type="MSPage">
        <g id="Desktop-HD" sketch:type="MSArtboardGroup" transform="translate(-694.000000, -60.000000)">
            <g id="header" sketch:type="MSLayerGroup" transform="translate(0.000000, -1.000000)">
                <g id="Logotype" transform="translate(694.000000, 61.000000)" sketch:type="MSShapeGroup">
                    <path d="M0.5,14.625 L3.975,14.625 L3.975,18 L0.5,18 L0.5,14.625 Z M10.75,7.625 L15.85,7.625 C16.6000037,7.625 17.2249975,7.41250212 17.725,6.9875 C18.2250025,6.56249787 18.475,5.950004 18.475,5.15 C18.475,4.2499955 18.2500022,3.6166685 17.8,3.25 C17.3499977,2.8833315 16.7000042,2.7 15.85,2.7 L10.75,2.7 L10.75,7.625 Z M7.625,0.15 L16.3,0.15 C17.900008,0.15 19.1833285,0.516663 20.15,1.25 C21.1166715,1.983337 21.6,3.09165925 21.6,4.575 C21.6,5.4750045 21.3791689,6.24583012 20.9375,6.8875 C20.4958311,7.52916987 19.8666707,8.02499825 19.05,8.375 L19.05,8.425 C20.1500055,8.6583345 20.9833305,9.17916262 21.55,9.9875 C22.1166695,10.7958374 22.4,11.8083272 22.4,13.025 C22.4,13.7250035 22.2750012,14.3791636 22.025,14.9875 C21.7749987,15.5958364 21.383336,16.1208311 20.85,16.5625 C20.316664,17.0041689 19.6333375,17.3541654 18.8,17.6125 C17.9666625,17.8708346 16.9750058,18 15.825,18 L7.625,18 L7.625,0.15 Z M10.75,15.45 L16.275,15.45 C17.2250047,15.45 17.9624974,15.2041691 18.4875,14.7125 C19.0125026,14.2208309 19.275,13.5250045 19.275,12.625 C19.275,11.7416622 19.0125026,11.0625024 18.4875,10.5875 C17.9624974,10.1124976 17.2250047,9.875 16.275,9.875 L10.75,9.875 L10.75,15.45 Z M35.65,15.125 C35.65,15.4750017 35.6958329,15.7249992 35.7875,15.875 C35.8791671,16.0250007 36.058332,16.1 36.325,16.1 L36.625,16.1 C36.7416672,16.1 36.8749993,16.0833335 37.025,16.05 L37.025,18.025 C36.9249995,18.0583335 36.7958341,18.0958331 36.6375,18.1375 C36.4791659,18.1791669 36.3166675,18.2166665 36.15,18.25 C35.9833325,18.2833335 35.8166675,18.3083332 35.65,18.325 C35.4833325,18.3416667 35.3416673,18.35 35.225,18.35 C34.6416637,18.35 34.1583353,18.2333345 33.775,18 C33.3916648,17.7666655 33.1416673,17.3583362 33.025,16.775 C32.4583305,17.3250027 31.7625041,17.7249987 30.9375,17.975 C30.1124959,18.2250012 29.3166705,18.35 28.55,18.35 C27.9666638,18.35 27.408336,18.2708341 26.875,18.1125 C26.341664,17.9541659 25.8708354,17.7208349 25.4625,17.4125 C25.0541646,17.1041651 24.7291679,16.7125024 24.4875,16.2375 C24.2458321,15.7624976 24.125,15.2083365 24.125,14.575 C24.125,13.774996 24.2708319,13.1250025 24.5625,12.625 C24.8541681,12.1249975 25.2374976,11.7333347 25.7125,11.45 C26.1875024,11.1666652 26.7208304,10.9625006 27.3125,10.8375 C27.9041696,10.7124994 28.499997,10.616667 29.1,10.55 C29.6166693,10.4499995 30.108331,10.3791669 30.575,10.3375 C31.041669,10.2958331 31.4541649,10.2250005 31.8125,10.125 C32.1708351,10.0249995 32.4541656,9.87083437 32.6625,9.6625 C32.8708344,9.45416562 32.975,9.14166875 32.975,8.725 C32.975,8.3583315 32.8875009,8.0583345 32.7125,7.825 C32.5374991,7.5916655 32.3208346,7.41250062 32.0625,7.2875 C31.8041654,7.16249937 31.5166683,7.07916687 31.2,7.0375 C30.8833318,6.99583312 30.5833347,6.975 30.3,6.975 C29.499996,6.975 28.8416693,7.141665 28.325,7.475 C27.8083308,7.808335 27.516667,8.3249965 27.45,9.025 L24.6,9.025 C24.6500002,8.1916625 24.8499982,7.50000275 25.2,6.95 C25.5500017,6.39999725 25.9958306,5.958335 26.5375,5.625 C27.0791694,5.291665 27.6916632,5.058334 28.375,4.925 C29.0583367,4.791666 29.7583297,4.725 30.475,4.725 C31.1083365,4.725 31.7333303,4.791666 32.35,4.925 C32.9666698,5.058334 33.5208309,5.2749985 34.0125,5.575 C34.5041691,5.8750015 34.8999985,6.26249762 35.2,6.7375 C35.5000015,7.21250237 35.65,7.79166325 35.65,8.475 L35.65,15.125 Z M32.8,11.525 C32.3666645,11.8083347 31.8333365,11.9791664 31.2,12.0375 C30.5666635,12.0958336 29.9333365,12.1833327 29.3,12.3 C28.9999985,12.3500002 28.7083348,12.4208329 28.425,12.5125 C28.1416652,12.6041671 27.8916677,12.7291659 27.675,12.8875 C27.4583322,13.0458341 27.2875006,13.2541654 27.1625,13.5125 C27.0374994,13.7708346 26.975,14.0833315 26.975,14.45 C26.975,14.7666682 27.0666657,15.0333322 27.25,15.25 C27.4333343,15.4666677 27.6541654,15.6374994 27.9125,15.7625 C28.1708346,15.8875006 28.4541651,15.9749997 28.7625,16.025 C29.0708349,16.0750002 29.3499988,16.1 29.6,16.1 C29.9166683,16.1 30.2583315,16.0583337 30.625,15.975 C30.9916685,15.8916662 31.3374984,15.750001 31.6625,15.55 C31.9875016,15.349999 32.2583322,15.0958349 32.475,14.7875 C32.6916677,14.4791651 32.8,14.1000022 32.8,13.65 L32.8,11.525 Z" id=".Ba" fill="#393838"></path>
                    <path d="M41.864,5.716 L41.864,2.93 L40.366,2.93 L40.366,5.716 L37.58,5.716 L37.58,7.214 L40.366,7.214 L40.366,10 L41.864,10 L41.864,7.214 L44.65,7.214 L44.65,5.716 L41.864,5.716 Z M52.546,1.908 L52.546,0.2 L45.854,0.2 L45.854,2.048 L50.502,2.048 C49.568662,3.17733898 48.8150029,4.4186599 48.241,5.772 C47.6669971,7.1253401 47.3240006,8.53465934 47.212,10 L49.34,10 C49.3493334,9.3466634 49.4263326,8.64200378 49.571,7.886 C49.7156674,7.12999622 49.9209987,6.38333702 50.187,5.646 C50.4530013,4.90866298 50.7843314,4.2133366 51.181,3.56 C51.5776687,2.9066634 52.0326641,2.35600224 52.546,1.908 L52.546,1.908 Z" id="+7" fill="#FC5A3C"></path>
                </g>
            </g>
        </g>
    </g>
</svg>